<svg xmlns="http://www.w3.org/2000/svg" viewBox="0 0 355.62 344.89"><defs><style>.cls-1,.cls-2{fill:#f2d56d;stroke:#f2d56d;stroke-miterlimit:22.93;fill-rule:evenodd;}.cls-1{stroke-width:0.22px;}.cls-2{stroke-width:0.57px;}</style></defs><title>Ativo 1</title><g id="Camada_2" data-name="Camada 2"><g id="Camada_1-2" data-name="Camada 1"><path class="cls-1" d="M.12,89.55c8.58,17.39,85.52,82,103.74,88.31,19.93,6.91,48.15-16.36,18.93-44.66-14.44-14-41.58-29-52.21-43.65,10.29-14.44,39.18-29.31,53.78-42,26.36-22.85,9.08-56-19.88-45.45C85.44,9.1,7.94,74.3.12,89.55Z"/><path class="cls-1" d="M355.5,89.55c-8.58,17.39-85.52,82-103.74,88.31-19.93,6.91-48.15-16.36-18.93-44.66,14.44-14,41.58-29,52.21-43.65-10.29-14.44-39.18-29.31-53.78-42-26.36-22.85-9.08-56,19.88-45.45C270.18,9.1,347.68,74.3,355.5,89.55Z"/><path class="cls-2" d="M173.84,133.24c84.82,0,153.58,89.43,153.58,199.75,0,3.91-.1,7.78-.27,11.62H236.45c.06-1.93.11-3.86.11-5.81,0-55.16-28.09-99.88-62.72-99.88s-62.72,44.72-62.72,99.88c0,1.94,0,3.88.11,5.81H20.51c-.17-3.84-.27-7.71-.27-11.62C20.25,222.67,89,133.24,173.84,133.24Z"/></g></g></svg>